<?xml version="1.0" encoding="iso-8859-1"?>
<!-- Generator: Adobe Illustrator 19.0.0, SVG Export Plug-In . SVG Version: 6.00 Build 0)  -->
<svg version="1.1" id="Layer_1" xmlns="http://www.w3.org/2000/svg" xmlns:xlink="http://www.w3.org/1999/xlink" x="0px" y="0px"
	 viewBox="0 0 512.018 512.018" style="enable-background:new 0 0 512.018 512.018;" xml:space="preserve">
<g>
	<path style="fill:#ECBA16;" d="M79.458,459.052c0-58.412,47.519-105.931,105.931-105.931S291.32,400.64,291.32,459.052H79.458z
		 M344.286,459.052c0-87.755-71.142-158.897-158.897-158.897S26.493,371.297,26.493,459.052H0.01v52.966h370.759v-52.966H344.286z"
		/>
	<g>
		<path style="fill:#E8CE85;" d="M35.32,512.018h17.655v-17.655H35.32V512.018z"/>
		<path style="fill:#E8CE85;" d="M105.941,512.018h17.655v-17.655h-17.655V512.018z"/>
		<path style="fill:#E8CE85;" d="M176.562,512.018h17.655v-17.655h-17.655V512.018z"/>
		<path style="fill:#E8CE85;" d="M176.562,317.811h17.655v-17.655h-17.655V317.811z"/>
		<path style="fill:#E8CE85;" d="M279.906,359.362l-12.482-12.482l14.901-14.91l12.482,12.491L279.906,359.362z"/>
		<path style="fill:#E8CE85;" d="M90.872,359.362l-14.901-14.901l12.482-12.491l14.901,14.91L90.872,359.362z"/>
		<path style="fill:#E8CE85;" d="M247.183,512.018h17.655v-17.655h-17.655V512.018z"/>
		<path style="fill:#E8CE85;" d="M317.803,512.018h17.655v-17.655h-17.655V512.018z"/>
	</g>
	<path style="fill:#ECBA16;" d="M406.079,512.018H512.01v-512H406.079V512.018z"/>
	<g>
		<path style="fill:#E8CE85;" d="M406.079,88.294h35.31V70.638h-35.31V88.294z"/>
		<path style="fill:#E8CE85;" d="M406.079,132.431h52.966v-17.655h-52.966V132.431z"/>
		<path style="fill:#E8CE85;" d="M406.079,176.569h35.31v-17.655h-35.31V176.569z"/>
		<path style="fill:#E8CE85;" d="M406.079,220.707h52.966v-17.655h-52.966V220.707z"/>
		<path style="fill:#E8CE85;" d="M406.079,264.845h35.31V247.19h-35.31V264.845z"/>
		<path style="fill:#E8CE85;" d="M406.079,308.983h52.966v-17.655h-52.966V308.983z"/>
		<path style="fill:#E8CE85;" d="M406.079,353.121h35.31v-17.655h-35.31V353.121z"/>
		<path style="fill:#E8CE85;" d="M406.079,397.259h52.966v-17.655h-52.966V397.259z"/>
		<path style="fill:#E8CE85;" d="M406.079,485.535h52.966V467.88h-52.966V485.535z"/>
		<path style="fill:#E8CE85;" d="M406.079,441.397h35.31v-17.655h-35.31V441.397z"/>
	</g>
	<path style="fill:#ECBA16;" d="M296.231,101.665L152.668,245.228L145.35,230.6c-11.308-22.607-31.126-39.795-55.111-47.793
		L233.811,39.245C246.249,68.261,267.215,89.227,296.231,101.665"/>
	<path style="fill:#E8CE85;" d="M90.244,182.811L90.244,182.811c23.985,7.998,43.802,25.185,55.111,47.793l7.309,14.627
		L0.008,335.467L90.244,182.811z"/>
	<path d="M82.219,286.872L0.007,335.468l49.258-83.332L82.219,286.872z"/>
	<path style="fill:#D75A4A;" d="M326.631,70.638l-30.402,31.029c-29.016-12.438-49.982-33.404-62.42-62.42l31.029-30.402
		c11.794-11.794,32.344-11.794,44.138,0L326.631,26.5C338.424,38.294,338.424,58.845,326.631,70.638"/>
	<path style="fill:#E8CE85;" d="M485.527,44.156c0,9.754-7.901,17.655-17.655,17.655c-9.754,0-17.655-7.901-17.655-17.655
		S458.118,26.5,467.872,26.5C477.627,26.5,485.527,34.401,485.527,44.156"/>
</g>
<g>
</g>
<g>
</g>
<g>
</g>
<g>
</g>
<g>
</g>
<g>
</g>
<g>
</g>
<g>
</g>
<g>
</g>
<g>
</g>
<g>
</g>
<g>
</g>
<g>
</g>
<g>
</g>
<g>
</g>
</svg>
