<?xml version="1.0" encoding="iso-8859-1"?>
<!-- Generator: Adobe Illustrator 19.0.0, SVG Export Plug-In . SVG Version: 6.00 Build 0)  -->
<svg version="1.1" id="Layer_1" xmlns="http://www.w3.org/2000/svg" xmlns:xlink="http://www.w3.org/1999/xlink" x="0px" y="0px"
	 viewBox="0 0 511.999 511.999" style="enable-background:new 0 0 511.999 511.999;" xml:space="preserve">
<path style="fill:#3B8BC0;" d="M437.046,369.439H74.954c-4.411,0-8.44-2.506-10.39-6.463L1.196,234.419
	c-2.828-5.737-0.469-12.682,5.268-15.512c5.739-2.826,12.683-0.47,15.512,5.269l60.183,122.094H429.84l60.183-122.094
	c2.829-5.737,9.773-8.099,15.512-5.269c5.739,2.829,8.097,9.774,5.269,15.512l-63.368,128.556
	C445.486,366.934,441.458,369.439,437.046,369.439z"/>
<polygon style="fill:#FFE290;" points="124.791,25.511 91.988,122.397 124.791,145.564 157.593,122.397 "/>
<polygon style="fill:#FFCE47;" points="157.593,122.397 91.988,122.397 91.988,240.882 180.76,240.882 "/>
<polygon style="fill:#FFE290;" points="190.395,25.511 157.593,122.397 190.395,145.564 223.198,122.397 "/>
<polygon style="fill:#85C250;" points="223.198,122.397 157.593,122.397 157.593,240.882 246.365,240.882 "/>
<polygon style="fill:#FFE290;" points="256,25.511 223.198,122.397 256,145.564 288.803,122.397 "/>
<polygon style="fill:#FF755C;" points="288.803,122.397 223.198,122.397 223.198,240.882 311.97,240.882 "/>
<polygon style="fill:#FFE290;" points="321.605,25.511 288.803,122.397 321.605,145.564 354.409,122.397 "/>
<polygon style="fill:#FF4181;" points="354.409,122.397 288.803,122.397 288.803,240.882 377.576,240.882 "/>
<polygon style="fill:#FFE290;" points="387.211,25.511 354.409,122.397 387.211,145.564 420.014,122.397 "/>
<g>
	<rect x="354.412" y="122.392" style="fill:#4EB9FF;" width="65.605" height="118.489"/>
	<polygon style="fill:#4EB9FF;" points="51.787,310.854 51.787,498.354 460.215,498.354 460.215,310.854 256,276.103 	"/>
</g>
<path style="fill:#9AD7FF;" d="M413.88,206.131H98.122c-25.589,0-46.334,20.745-46.334,46.334v58.388h408.428v-58.388
	C460.215,226.876,439.47,206.131,413.88,206.131z"/>
<path style="fill:#FFCE47;" d="M124.791,13.645c-6.398,0-11.584,5.187-11.584,11.584v34.496h23.167V25.229
	C136.374,18.832,131.188,13.645,124.791,13.645z"/>
<path style="fill:#85C250;" d="M190.395,13.645c-6.398,0-11.584,5.187-11.584,11.584v34.496h23.167V25.229
	C201.979,18.832,196.793,13.645,190.395,13.645z"/>
<path style="fill:#FF755C;" d="M267.584,59.725V25.229c0-6.396-5.187-11.584-11.584-11.584c-6.398,0-11.584,5.187-11.584,11.584
	v34.496H267.584z"/>
<path style="fill:#FF4181;" d="M321.605,13.645c-6.396,0-11.584,5.187-11.584,11.584v34.497l23.167-0.003V25.229
	C333.189,18.832,328.002,13.645,321.605,13.645z"/>
<path style="fill:#4EB9FF;" d="M387.211,13.645c-6.396,0-11.584,5.187-11.584,11.584v34.496h23.167V25.229
	C398.795,18.832,393.608,13.645,387.211,13.645z"/>
<g>
</g>
<g>
</g>
<g>
</g>
<g>
</g>
<g>
</g>
<g>
</g>
<g>
</g>
<g>
</g>
<g>
</g>
<g>
</g>
<g>
</g>
<g>
</g>
<g>
</g>
<g>
</g>
<g>
</g>
</svg>
