<?xml version="1.0" encoding="iso-8859-1"?>
<!-- Generator: Adobe Illustrator 19.0.0, SVG Export Plug-In . SVG Version: 6.00 Build 0)  -->
<svg version="1.1" id="Layer_1" xmlns="http://www.w3.org/2000/svg" xmlns:xlink="http://www.w3.org/1999/xlink" x="0px" y="0px"
	 viewBox="0 0 512 512" style="enable-background:new 0 0 512 512;" xml:space="preserve">
<polygon style="fill:#F7B239;" points="340.677,336.293 277.546,351.091 275.735,286.267 308.212,311.287 "/>
<path style="fill:#E6E6E6;" d="M140.653,158.142c23.261,0,42.131,18.87,42.131,42.144s-18.87,42.131-42.131,42.131
	c-23.274,0-42.144-18.857-42.144-42.131S117.379,158.142,140.653,158.142z"/>
<polygon style="fill:#B3B3B3;" points="118.133,18.815 118.133,127.026 9.922,127.026 "/>
<path style="fill:#E6E6E6;" d="M140.653,242.417c23.261,0,42.131-18.857,42.131-42.131s-18.87-42.144-42.131-42.144
	c-23.274,0-42.144,18.87-42.144,42.144S117.379,242.417,140.653,242.417z M388.111,274.75v218.445H9.922V127.026h108.211V18.815
	h269.978v121.567L275.735,286.267l1.812,64.823l63.131-14.798l47.421-61.557L388.111,274.75z"/>
<polygon style="fill:#F95428;" points="502.087,126.775 388.098,274.736 340.677,336.293 308.212,311.287 308.212,311.274 
	469.61,101.755 "/>
<polygon style="fill:#D33924;" points="469.61,101.755 308.212,311.274 308.212,311.287 275.735,286.267 388.111,140.382 
	437.132,76.749 "/>
<g>
	<path style="fill:#FFFFFF;" d="M357.211,136.338c-5.479,0-9.918-4.441-9.918-9.918V86.751c0-5.477,4.439-9.918,9.918-9.918
		c5.479,0,9.918,4.441,9.918,9.918v39.669C367.129,131.897,362.689,136.338,357.211,136.338z"/>
	<path style="fill:#FFFFFF;" d="M357.211,468.24c-5.479,0-9.918-4.441-9.918-9.918v-93.884c0-5.477,4.439-9.918,9.918-9.918
		c5.479,0,9.918,4.441,9.918,9.918v93.884C367.129,463.8,362.689,468.24,357.211,468.24z"/>
</g>
<g>
	<path style="fill:#333333;" d="M508.135,118.921l-64.95-50.034c-2.085-1.605-4.729-2.318-7.329-1.978
		c-2.609,0.339-4.976,1.699-6.582,3.782l-31.249,40.566V18.811c0-5.477-4.439-9.918-9.918-9.918H118.129
		c-2.63,0-5.152,1.045-7.014,2.905L2.904,120.009C1.045,121.867,0,124.39,0,127.02v366.169c0,5.477,4.439,9.918,9.918,9.918h378.189
		c5.479,0,9.918-4.441,9.918-9.918V278.111L509.938,132.83C513.281,128.491,512.473,122.264,508.135,118.921z M438.936,90.654
		l16.763,12.912L306.403,297.372l-16.763-12.912L438.936,90.654z M318.081,331.406l-30.965,7.253l-0.889-31.79L318.081,331.406z
		 M108.211,42.754v74.35h-74.35L108.211,42.754z M378.189,483.273H19.836V136.94h98.293c5.479,0,9.918-4.441,9.918-9.918V28.729
		h250.142v108.278L267.874,280.211c-1.395,1.81-2.121,4.047-2.058,6.33l1.81,64.825c0.083,2.978,1.501,5.762,3.861,7.58
		c1.751,1.35,3.885,2.062,6.053,2.062c0.754,0,1.514-0.086,2.263-0.262l63.141-14.792c2.224-0.521,4.201-1.794,5.594-3.603
		l29.649-38.489v179.412H378.189z M338.879,322.388l-16.763-12.912L471.411,115.67l16.761,12.912L338.879,322.388z"/>
	<path style="fill:#333333;" d="M132.723,251.737l7.497,77.468c0.496,5.127,4.812,8.963,9.86,8.963c0.319,0,0.643-0.016,0.967-0.046
		c5.452-0.528,9.444-5.376,8.916-10.828l-7.388-76.349c22.974-5.407,40.13-26.062,40.13-50.662
		c0-28.705-23.352-52.057-52.057-52.057c-28.704,0-52.056,23.352-52.056,52.057C88.591,226.293,107.767,247.909,132.723,251.737z
		 M140.646,168.062c17.768,0,32.221,14.454,32.221,32.221c0,17.766-14.455,32.22-32.221,32.22s-32.22-14.454-32.22-32.22
		C108.426,182.516,122.881,168.062,140.646,168.062z"/>
	<path style="fill:#333333;" d="M116.37,270.725H63.475c-5.479,0-9.918,4.441-9.918,9.918s4.439,9.918,9.918,9.918h52.895
		c5.479,0,9.918-4.441,9.918-9.918S121.849,270.725,116.37,270.725z"/>
	<path style="fill:#333333;" d="M182.628,284.588l42.316-47.606c3.639-4.094,3.27-10.362-0.824-14.001s-10.364-3.27-14.001,0.824
		l-42.316,47.606c-3.639,4.094-3.27,10.362,0.824,14.001c1.89,1.679,4.241,2.506,6.584,2.506
		C177.947,287.917,180.67,286.792,182.628,284.588z"/>
	<path style="fill:#333333;" d="M155.05,352.987c-5.324-1.277-10.681,2.005-11.958,7.329l-15.869,66.119
		c-1.279,5.327,2.003,10.681,7.33,11.958c0.778,0.186,1.556,0.276,2.322,0.276c4.482,0,8.545-3.057,9.636-7.605l15.869-66.119
		C163.658,359.619,160.376,354.265,155.05,352.987z"/>
	<path style="fill:#333333;" d="M255.41,369.829l-71.409-39.672c-4.792-2.662-10.826-0.935-13.487,3.853
		c-2.659,4.788-0.935,10.826,3.853,13.486l71.409,39.672c1.526,0.848,3.178,1.25,4.808,1.25c3.486,0,6.866-1.841,8.679-5.103
		C261.921,378.528,260.198,372.49,255.41,369.829z"/>
</g>
<circle style="fill:#FFFFFF;" cx="357.203" cy="57.008" r="9.918"/>
<g>
</g>
<g>
</g>
<g>
</g>
<g>
</g>
<g>
</g>
<g>
</g>
<g>
</g>
<g>
</g>
<g>
</g>
<g>
</g>
<g>
</g>
<g>
</g>
<g>
</g>
<g>
</g>
<g>
</g>
</svg>
